M48
; DRILL file {KiCad 7.0.8} date Fri Sep 13 08:40:38 2024
; FORMAT={3:3/ absolute / metric / suppress leading zeros}
; #@! TF.CreationDate,2024-09-13T08:40:38+02:00
; #@! TF.GenerationSoftware,Kicad,Pcbnew,7.0.8
; #@! TF.FileFunction,MixedPlating,1,2
FMAT,2
METRIC,TZ
; #@! TA.AperFunction,Plated,PTH,ComponentDrill
T1C0.800
; #@! TA.AperFunction,Plated,PTH,ComponentDrill
T2C1.000
; #@! TA.AperFunction,Plated,PTH,ComponentDrill
T3C1.100
; #@! TA.AperFunction,Plated,PTH,ComponentDrill
T4C1.600
; #@! TA.AperFunction,Plated,PTH,ComponentDrill
T5C2.000
; #@! TA.AperFunction,NonPlated,NPTH,ComponentDrill
T6C3.500
%
G90
G05
T1
X69850Y-87808
X69850Y-90348
X69850Y-92888
X69850Y-95428
X75946Y-106426
X75946Y-108926
X77470Y-87808
X77470Y-90348
X77470Y-92888
X77470Y-95428
X85090Y-87630
X85090Y-95250
X85090Y-104140
X85090Y-111760
X90678Y-93726
X90758Y-87884
X91440Y-104140
X91440Y-111760
X95678Y-93726
X95758Y-87884
X97536Y-104140
X97536Y-111760
X101600Y-87554
X101600Y-90094
X101600Y-92634
X101600Y-95174
X108204Y-105918
X108204Y-108418
X109220Y-87554
X109220Y-90094
X109220Y-92634
X109220Y-95174
T2
X40170Y-89865
X40640Y-99060
X134925Y-83414
X134925Y-85954
X134925Y-88494
T3
X53340Y-106680
X55880Y-106680
X58420Y-106680
T4
X29172Y-99060
X29540Y-89827
X33744Y-99060
X33922Y-89878
T5
X121920Y-113538
X127000Y-113538
X131826Y-113538
T6
X55880Y-90020
T0
M30
