%TF.GenerationSoftware,KiCad,Pcbnew,7.0.8*%
%TF.CreationDate,2024-09-13T08:40:35+02:00*%
%TF.ProjectId,Servotester,53657276-6f74-4657-9374-65722e6b6963,rev?*%
%TF.SameCoordinates,Original*%
%TF.FileFunction,Soldermask,Top*%
%TF.FilePolarity,Negative*%
%FSLAX46Y46*%
G04 Gerber Fmt 4.6, Leading zero omitted, Abs format (unit mm)*
G04 Created by KiCad (PCBNEW 7.0.8) date 2024-09-13 08:40:35*
%MOMM*%
%LPD*%
G01*
G04 APERTURE LIST*
%ADD10C,1.600000*%
%ADD11O,1.600000X1.600000*%
%ADD12R,1.600000X1.600000*%
%ADD13R,2.000000X2.000000*%
%ADD14O,3.500000X3.500000*%
%ADD15R,1.905000X2.000000*%
%ADD16O,1.905000X2.000000*%
%ADD17C,2.000000*%
%ADD18C,3.000000*%
G04 APERTURE END LIST*
D10*
%TO.C,10n*%
X95758000Y-87884000D03*
X90758000Y-87884000D03*
%TD*%
%TO.C,10k*%
X85090000Y-87630000D03*
D11*
X85090000Y-95250000D03*
%TD*%
D10*
%TO.C,33K*%
X85090000Y-104140000D03*
D11*
X85090000Y-111760000D03*
%TD*%
D10*
%TO.C,100K*%
X91440000Y-104140000D03*
D11*
X91440000Y-111760000D03*
%TD*%
D10*
%TO.C,1K*%
X97536000Y-111760000D03*
D11*
X97536000Y-104140000D03*
%TD*%
D12*
%TO.C,NE555*%
X69850000Y-87807800D03*
D11*
X69850000Y-90347800D03*
X69850000Y-92887800D03*
X69850000Y-95427800D03*
X77470000Y-95427800D03*
X77470000Y-92887800D03*
X77470000Y-90347800D03*
X77470000Y-87807800D03*
%TD*%
D12*
%TO.C,NE555*%
X101600000Y-87553800D03*
D11*
X101600000Y-90093800D03*
X101600000Y-92633800D03*
X101600000Y-95173800D03*
X109220000Y-95173800D03*
X109220000Y-92633800D03*
X109220000Y-90093800D03*
X109220000Y-87553800D03*
%TD*%
D13*
%TO.C,VCC*%
X134924800Y-83413600D03*
%TD*%
%TO.C,Q*%
X134924800Y-85953600D03*
%TD*%
%TO.C,GND*%
X40640000Y-99060000D03*
%TD*%
D14*
%TO.C,7805*%
X55880000Y-90020000D03*
D15*
X53340000Y-106680000D03*
D16*
X55880000Y-106680000D03*
X58420000Y-106680000D03*
%TD*%
D13*
%TO.C,9V*%
X40170100Y-89865200D03*
%TD*%
D17*
%TO.C, *%
X29540200Y-89827100D03*
%TD*%
%TO.C, *%
X33743900Y-99060000D03*
%TD*%
D13*
%TO.C,GND*%
X134924800Y-88493600D03*
%TD*%
D12*
%TO.C,1uF*%
X75946000Y-106426000D03*
D10*
X75946000Y-108926000D03*
%TD*%
%TO.C,100n*%
X90678000Y-93726000D03*
X95678000Y-93726000D03*
%TD*%
D12*
%TO.C,100uF*%
X108204000Y-105918000D03*
D10*
X108204000Y-108418000D03*
%TD*%
D17*
%TO.C,LP*%
X80772000Y-98298000D03*
%TD*%
%TO.C,LP*%
X113030000Y-98298000D03*
%TD*%
%TO.C,LP*%
X113284000Y-85598000D03*
%TD*%
D18*
%TO.C,20K lin*%
X121920000Y-113538000D03*
%TD*%
%TO.C,LP*%
X131826000Y-113538000D03*
%TD*%
D17*
%TO.C,LP*%
X113030000Y-113538000D03*
%TD*%
D18*
%TO.C,LP*%
X127000000Y-113538000D03*
%TD*%
D17*
%TO.C, *%
X33921700Y-89877900D03*
%TD*%
%TO.C, *%
X29171900Y-99060000D03*
%TD*%
M02*
