%TF.GenerationSoftware,KiCad,Pcbnew,7.0.8*%
%TF.CreationDate,2024-09-13T08:40:35+02:00*%
%TF.ProjectId,Servotester,53657276-6f74-4657-9374-65722e6b6963,rev?*%
%TF.SameCoordinates,Original*%
%TF.FileFunction,Copper,L1,Top*%
%TF.FilePolarity,Positive*%
%FSLAX46Y46*%
G04 Gerber Fmt 4.6, Leading zero omitted, Abs format (unit mm)*
G04 Created by KiCad (PCBNEW 7.0.8) date 2024-09-13 08:40:35*
%MOMM*%
%LPD*%
G01*
G04 APERTURE LIST*
%TA.AperFunction,ComponentPad*%
%ADD10C,1.600000*%
%TD*%
%TA.AperFunction,ComponentPad*%
%ADD11O,1.600000X1.600000*%
%TD*%
%TA.AperFunction,ComponentPad*%
%ADD12R,1.600000X1.600000*%
%TD*%
%TA.AperFunction,ComponentPad*%
%ADD13R,2.000000X2.000000*%
%TD*%
%TA.AperFunction,ComponentPad*%
%ADD14R,1.905000X2.000000*%
%TD*%
%TA.AperFunction,ComponentPad*%
%ADD15O,1.905000X2.000000*%
%TD*%
%TA.AperFunction,ComponentPad*%
%ADD16C,2.000000*%
%TD*%
%TA.AperFunction,SMDPad,CuDef*%
%ADD17C,2.000000*%
%TD*%
%TA.AperFunction,ComponentPad*%
%ADD18C,3.000000*%
%TD*%
%TA.AperFunction,Conductor*%
%ADD19C,0.250000*%
%TD*%
G04 APERTURE END LIST*
D10*
%TO.P,10n,1*%
%TO.N,Net-(U4-TR)*%
X95758000Y-87884000D03*
%TO.P,10n,2*%
%TO.N,Net-(U3-Q)*%
X90758000Y-87884000D03*
%TD*%
%TO.P,10k,1*%
%TO.N,Net-(U2-VO)*%
X85090000Y-87630000D03*
D11*
%TO.P,10k,2*%
%TO.N,Net-(U3-DIS)*%
X85090000Y-95250000D03*
%TD*%
D10*
%TO.P,33K,1*%
%TO.N,Net-(U3-DIS)*%
X85090000Y-104140000D03*
D11*
%TO.P,33K,2*%
%TO.N,Net-(U3-THR)*%
X85090000Y-111760000D03*
%TD*%
D10*
%TO.P,100K,1*%
%TO.N,Net-(U2-VO)*%
X91440000Y-104140000D03*
D11*
%TO.P,100K,2*%
%TO.N,Net-(U4-TR)*%
X91440000Y-111760000D03*
%TD*%
D10*
%TO.P,1K,1*%
%TO.N,Net-(R4-Pad1)*%
X97536000Y-111760000D03*
D11*
%TO.P,1K,2*%
%TO.N,Net-(U4-DIS)*%
X97536000Y-104140000D03*
%TD*%
D12*
%TO.P,NE555,1,GND*%
%TO.N,Net-(U2-GND)*%
X69850000Y-87807800D03*
D11*
%TO.P,NE555,2,TR*%
%TO.N,Net-(U3-THR)*%
X69850000Y-90347800D03*
%TO.P,NE555,3,Q*%
%TO.N,Net-(U3-Q)*%
X69850000Y-92887800D03*
%TO.P,NE555,4,R*%
%TO.N,unconnected-(U3-R-Pad4)*%
X69850000Y-95427800D03*
%TO.P,NE555,5,CV*%
%TO.N,unconnected-(U3-CV-Pad5)*%
X77470000Y-95427800D03*
%TO.P,NE555,6,THR*%
%TO.N,Net-(U3-THR)*%
X77470000Y-92887800D03*
%TO.P,NE555,7,DIS*%
%TO.N,Net-(U3-DIS)*%
X77470000Y-90347800D03*
%TO.P,NE555,8,VCC*%
%TO.N,Net-(U2-VO)*%
X77470000Y-87807800D03*
%TD*%
D12*
%TO.P,NE555,1,GND*%
%TO.N,Net-(U2-GND)*%
X101600000Y-87553800D03*
D11*
%TO.P,NE555,2,TR*%
%TO.N,Net-(U4-TR)*%
X101600000Y-90093800D03*
%TO.P,NE555,3,Q*%
%TO.N,Net-(U4-Q)*%
X101600000Y-92633800D03*
%TO.P,NE555,4,R*%
%TO.N,unconnected-(U4-R-Pad4)*%
X101600000Y-95173800D03*
%TO.P,NE555,5,CV*%
%TO.N,unconnected-(U4-CV-Pad5)*%
X109220000Y-95173800D03*
%TO.P,NE555,6,THR*%
%TO.N,Net-(U4-DIS)*%
X109220000Y-92633800D03*
%TO.P,NE555,7,DIS*%
X109220000Y-90093800D03*
%TO.P,NE555,8,VCC*%
%TO.N,Net-(U2-VO)*%
X109220000Y-87553800D03*
%TD*%
D13*
%TO.P,VCC,1,LP*%
%TO.N,Net-(U4-Q)*%
X134924800Y-83413600D03*
%TD*%
%TO.P,Q,1,LP*%
%TO.N,Net-(U2-VO)*%
X134924800Y-85953600D03*
%TD*%
%TO.P,GND,1,LP_GND*%
%TO.N,Net-(U2-GND)*%
X40640000Y-99060000D03*
%TD*%
D14*
%TO.P,7805,1,VO*%
%TO.N,Net-(U1-LP_Vcc)*%
X53340000Y-106680000D03*
D15*
%TO.P,7805,2,GND*%
%TO.N,Net-(U2-GND)*%
X55880000Y-106680000D03*
%TO.P,7805,3,VI*%
%TO.N,Net-(U2-VO)*%
X58420000Y-106680000D03*
%TD*%
D13*
%TO.P,9V,1,LP_Vcc*%
%TO.N,Net-(U1-LP_Vcc)*%
X40170100Y-89865200D03*
%TD*%
D16*
%TO.P, ,1*%
%TO.N,N/C*%
X29540200Y-89827100D03*
%TD*%
%TO.P, ,1*%
%TO.N,N/C*%
X33743900Y-99060000D03*
%TD*%
D13*
%TO.P,GND,1,LP*%
%TO.N,Net-(U2-GND)*%
X134924800Y-88493600D03*
%TD*%
D12*
%TO.P,1uF,1*%
%TO.N,Net-(U3-THR)*%
X75946000Y-106426000D03*
D10*
%TO.P,1uF,2*%
%TO.N,Net-(U2-GND)*%
X75946000Y-108926000D03*
%TD*%
%TO.P,100n,1*%
%TO.N,Net-(U4-DIS)*%
X90678000Y-93726000D03*
%TO.P,100n,2*%
%TO.N,Net-(U2-GND)*%
X95678000Y-93726000D03*
%TD*%
D12*
%TO.P,100uF,1*%
%TO.N,Net-(U2-VO)*%
X108204000Y-105918000D03*
D10*
%TO.P,100uF,2*%
%TO.N,Net-(U2-GND)*%
X108204000Y-108418000D03*
%TD*%
D17*
%TO.P,LP,1*%
%TO.N,Net-(U3-Q)*%
X80772000Y-98298000D03*
%TD*%
%TO.P,LP,1*%
%TO.N,Net-(U4-Q)*%
X113030000Y-98298000D03*
%TD*%
%TO.P,LP,1*%
%TO.N,Net-(U2-VO)*%
X113284000Y-85598000D03*
%TD*%
D18*
%TO.P,20K lin,1*%
%TO.N,Net-(U2-VO)*%
X121920000Y-113538000D03*
%TD*%
%TO.P,LP,1*%
%TO.N,Net-(R4-Pad1)*%
X131826000Y-113538000D03*
%TD*%
D17*
%TO.P,LP,1*%
%TO.N,Net-(U2-GND)*%
X113030000Y-113538000D03*
%TD*%
D18*
%TO.P,LP,1*%
%TO.N,Net-(U2-VO)*%
X127000000Y-113538000D03*
%TD*%
D16*
%TO.P, ,1*%
%TO.N,N/C*%
X33921700Y-89877900D03*
%TD*%
%TO.P, ,1*%
%TO.N,N/C*%
X29171900Y-99060000D03*
%TD*%
D19*
%TO.N,Net-(U2-GND)*%
X92710000Y-100076000D02*
X83566000Y-100076000D01*
X80010000Y-115316000D02*
X75946000Y-111252000D01*
X52578000Y-113030000D02*
X54102000Y-113030000D01*
X108204000Y-112522000D02*
X105156000Y-115570000D01*
X40640000Y-105918000D02*
X47752000Y-113030000D01*
X40640000Y-99060000D02*
X40640000Y-105918000D01*
X117627400Y-97358200D02*
X116560600Y-97358200D01*
X116560600Y-97358200D02*
X116560600Y-110007400D01*
X55880000Y-111252000D02*
X55880000Y-106680000D01*
X113030000Y-113538000D02*
X116560600Y-110007400D01*
X108204000Y-112522000D02*
X112014000Y-112522000D01*
X65278000Y-91694000D02*
X65278000Y-106934000D01*
X80010000Y-115570000D02*
X80010000Y-115316000D01*
X134924800Y-88493600D02*
X126492000Y-88493600D01*
X75946000Y-108926000D02*
X75946000Y-111252000D01*
X95678000Y-97108000D02*
X92710000Y-100076000D01*
X105156000Y-115570000D02*
X80010000Y-115570000D01*
X108204000Y-108418000D02*
X108204000Y-112522000D01*
X54102000Y-113030000D02*
X55880000Y-111252000D01*
X69164200Y-87807800D02*
X65278000Y-91694000D01*
X108204000Y-108204000D02*
X108204000Y-108418000D01*
X95678000Y-93726000D02*
X95678000Y-97108000D01*
X116560600Y-110007400D02*
X116789200Y-109778800D01*
X47752000Y-113030000D02*
X52578000Y-113030000D01*
X69850000Y-87807800D02*
X69164200Y-87807800D01*
X79796000Y-108926000D02*
X75946000Y-108926000D01*
X74168000Y-113030000D02*
X52578000Y-113030000D01*
X81534000Y-102108000D02*
X81534000Y-107188000D01*
X126492000Y-88493600D02*
X117627400Y-97358200D01*
X112014000Y-112522000D02*
X113030000Y-113538000D01*
X83566000Y-100076000D02*
X81534000Y-102108000D01*
X65278000Y-106934000D02*
X67270000Y-108926000D01*
X75946000Y-111252000D02*
X74168000Y-113030000D01*
X81534000Y-107188000D02*
X79796000Y-108926000D01*
X67270000Y-108926000D02*
X75946000Y-108926000D01*
%TO.N,Net-(U4-TR)*%
X98806000Y-97028000D02*
X98806000Y-89662000D01*
X91440000Y-111760000D02*
X94488000Y-108712000D01*
X94488000Y-108712000D02*
X94488000Y-101346000D01*
X101168200Y-89662000D02*
X101600000Y-90093800D01*
X94488000Y-101346000D02*
X98806000Y-97028000D01*
X98806000Y-89662000D02*
X101168200Y-89662000D01*
X97536000Y-89662000D02*
X98806000Y-89662000D01*
X95758000Y-87884000D02*
X97536000Y-89662000D01*
%TO.N,Net-(U3-Q)*%
X90758000Y-87884000D02*
X90758000Y-86694000D01*
X74930000Y-98298000D02*
X80772000Y-98298000D01*
X89154000Y-85090000D02*
X75692000Y-85090000D01*
X75692000Y-85090000D02*
X72390000Y-88392000D01*
X72390000Y-91440000D02*
X70942200Y-92887800D01*
X90758000Y-86694000D02*
X89154000Y-85090000D01*
X71805800Y-92887800D02*
X73660000Y-94742000D01*
X73660000Y-94742000D02*
X73660000Y-97028000D01*
X73660000Y-97028000D02*
X74930000Y-98298000D01*
X72390000Y-88392000D02*
X72390000Y-91440000D01*
X70942200Y-92887800D02*
X71805800Y-92887800D01*
X70942200Y-92887800D02*
X69850000Y-92887800D01*
%TO.N,Net-(U2-VO)*%
X113284000Y-85598000D02*
X110134400Y-85598000D01*
X130708400Y-85953600D02*
X134924800Y-85953600D01*
X130352800Y-85598000D02*
X130708400Y-85953600D01*
X110134400Y-85598000D02*
X109220000Y-86512400D01*
X113284000Y-85598000D02*
X130352800Y-85598000D01*
X109220000Y-86512400D02*
X109220000Y-87553800D01*
%TO.N,Net-(U4-Q)*%
X101600000Y-92633800D02*
X107264200Y-98298000D01*
X107264200Y-98298000D02*
X113030000Y-98298000D01*
%TD*%
M02*
